# xmcd CD database file
#
# Track frame offsets:
#	150
#	20834
#	42996
#	64699
#	85821
#	108459
#	131647
#	156005
#	176975
#	200814
#	218119
#	249881
#
# Disc length: 3562 seconds
#
# Revision: 0
# Processed by: cddbd v1.5PL3 Copyright (c) Steve Scherf et al.
# Submitted via: CDex 1.51
#
DISCID=ac0de80c
DTITLE=スガシカオ - SMILE
DYEAR=2003
DGENRE=JPop
TTITLE0=Thakyou 
TTITLE1=アシンメトリー
TTITLE2=優等生
TTITLE3=桜並木
TTITLE4=青空
TTITLE5=Go!Go!!
TTITLE6=サヨナラ
TTITLE7=あだゆめ
TTITLE8=はじめての気持ち
TTITLE9=気まぐれ
TTITLE10=ぼくたちの日々
TTITLE11=Theme Of Family Sugar
EXTD=YEAR: 2003/05
EXTT0=
EXTT1=
EXTT2=
EXTT3=
EXTT4=
EXTT5=
EXTT6=
EXTT7=
EXTT8=
EXTT9=
EXTT10=
EXTT11=
PLAYORDER=
